<?xml version="1.0" standalone="no"?>
<!DOCTYPE svg PUBLIC "-//W3C//DTD SVG 20010904//EN"
 "http://www.w3.org/TR/2001/REC-SVG-20010904/DTD/svg10.dtd">
<svg version="1.0" xmlns="http://www.w3.org/2000/svg"
 width="328.000000pt" height="328.000000pt" viewBox="0 0 328.000000 328.000000"
 preserveAspectRatio="xMidYMid meet">
<metadata>
Created by potrace 1.14, written by Peter Selinger 2001-2017
</metadata>
<g transform="translate(0.000000,328.000000) scale(0.100000,-0.100000)"
fill="#000000" stroke="none">
<path d="M1209 2248 c0 -7 -3 -32 -5 -55 -4 -38 0 -46 41 -90 38 -41 44 -54
45 -90 0 -24 -2 -43 -3 -43 -2 0 -19 8 -38 17 -52 27 -189 27 -259 1 -77 -30
-149 -104 -180 -188 -22 -56 -25 -82 -25 -185 0 -95 4 -131 19 -170 53 -137
151 -212 290 -222 192 -14 328 100 362 302 3 22 8 163 9 314 l3 274 -52 56
c-84 91 -83 91 -148 91 -39 0 -58 -4 -59 -12z m-36 -373 c81 -39 124 -179 103
-337 -12 -92 -48 -151 -109 -178 -119 -53 -218 59 -218 248 0 201 104 325 224
267z"/>
<path d="M1589 2201 c-18 -14 -24 -29 -24 -61 0 -32 6 -47 24 -61 33 -27 77
-24 108 7 21 21 24 32 19 62 -10 66 -77 94 -127 53z"/>
<path d="M2178 2045 c-2 -2 -26 -5 -55 -8 -116 -12 -199 -74 -252 -187 -33
-71 -35 -81 -35 -185 -1 -128 16 -194 70 -268 86 -118 221 -156 397 -112 26 7
27 6 23 -28 -3 -24 -18 -50 -45 -79 -37 -39 -40 -46 -37 -88 2 -25 4 -51 5
-57 1 -9 21 -13 65 -13 52 0 67 4 78 19 7 10 34 42 61 70 35 39 47 61 48 84 4
266 7 336 14 417 19 231 -88 394 -282 428 -29 5 -54 8 -55 7z m81 -153 c63
-46 97 -185 76 -306 -23 -134 -77 -196 -169 -196 -50 0 -97 37 -130 104 -26
51 -30 69 -30 145 0 115 23 190 74 241 53 53 118 58 179 12z"/>
<path d="M1560 1978 c-1 -109 -1 -682 -1 -700 1 -16 12 -18 86 -18 l85 0 1 48
c1 53 0 649 0 700 l-1 32 -85 0 -85 0 0 -62z"/>
<path d="M2833 2006 c-55 -15 -125 -65 -163 -117 -87 -120 -95 -358 -17 -491
47 -81 126 -141 202 -155 169 -30 313 34 379 169 34 70 37 85 42 194 9 245
-118 405 -326 410 -41 1 -94 -4 -117 -10z m160 -121 c81 -39 129 -203 101
-350 -25 -135 -122 -206 -219 -159 -143 67 -144 418 -2 504 38 24 78 25 120 5z"/>
<path d="M209 1987 c-74 -31 -123 -78 -159 -151 -37 -77 -48 -127 -48 -221 0
-231 118 -379 312 -392 252 -17 401 181 361 482 -4 28 -19 77 -34 110 -60 130
-145 187 -290 192 -73 3 -95 0 -142 -20z m191 -112 c65 -34 102 -122 103 -250
0 -100 -12 -156 -45 -205 -49 -71 -110 -91 -177 -58 -71 35 -101 104 -106 242
-3 93 13 163 51 221 39 59 114 81 174 50z"/>
</g>
</svg>
